<svg width="73" height="52" viewBox="0 0 73 52" fill="none" xmlns="http://www.w3.org/2000/svg">
<mask id="mask0_27_2362" style="mask-type:alpha" maskUnits="userSpaceOnUse" x="0" y="0" width="73" height="52">
<path d="M29.8251 0.044544C31.3991 0.0755927 32.9768 -0.0906092 34.5471 0.0737663C34.6891 1.79788 35.2162 3.4599 35.5203 5.15845C34.3039 4.91554 33.0634 4.98859 31.8341 4.97581C31.6498 4.574 31.4802 4.17402 31.294 3.77952C30.8056 2.53027 30.1992 1.32667 29.8196 0.0372384L29.8251 0.044544ZM36.4806 0.546803C39.3263 0.351378 42.996 1.83441 45.6077 2.92112C47.8434 4.03704 50.127 5.19132 52.6262 5.584C54.3982 5.85868 56.1989 5.90228 57.9823 5.71367C58.0911 5.70454 58.0432 5.68628 58.0819 5.83787C58.7196 8.34733 59.3204 10.8879 59.925 13.4083C60.5713 16.087 61.2127 18.7657 61.8492 21.4444C61.2962 21.7366 60.6899 21.8627 60.1277 22.1184C59.8476 22.2535 59.5748 22.3923 59.2891 22.5238C57.1032 23.7018 55.5033 25.6999 54.0989 27.687C56.4194 27.687 58.738 27.6633 61.0585 27.6998C75.4901 28.7591 73.0774 52 62.9016 52L8.81359 51.9781C-0.932796 52.0018 -5.81889 27.8532 14.1457 27.687C12.5717 23.8352 12.3579 19.5011 13.379 15.4849C13.4232 14.8657 13.9172 15.3516 14.2434 15.4666C14.6728 15.7497 15.1078 16.0145 15.5594 16.2684C16.1397 16.5663 16.7044 16.893 17.2514 17.2474C16.4607 19.934 16.7169 22.8233 17.5942 25.4661C17.8872 26.2186 18.1287 26.9948 18.5157 27.7053C28.4169 27.6943 38.3169 27.6943 48.2157 27.7053C49.9464 25.2652 51.5757 22.7119 53.7745 20.6499C53.1331 20.8691 52.4714 21.0152 51.8226 21.2198C51.6383 20.6426 51.4964 20.0545 51.2974 19.4847C50.8347 20.1842 50.4219 20.8983 49.5261 21.0937C48.9455 21.2198 48.317 20.7887 48.0166 20.9513C47.847 21.0718 47.7125 21.2472 47.5042 21.3914C47.0657 21.7086 46.5046 21.8089 45.9818 21.6636C45.4289 21.5211 45.3865 21.5357 44.9423 21.9028C44.8481 21.9817 44.7484 22.0537 44.6437 22.1184C44.1682 22.4303 43.5625 22.4726 43.0476 22.2298C42.2643 21.8645 41.6781 21.2636 41.1013 20.6445C39.3503 21.2106 37.5201 21.5193 35.7323 21.954C35.1359 21.8155 34.5671 21.5791 34.0495 21.2545C33.5279 20.4216 33.4376 19.3696 33.5887 18.4108L34.2154 17.8172C36.1267 17.2419 37.9366 16.8419 39.8885 16.4456C40.2331 16.3762 40.1686 16.4163 40.2811 16.7835C40.3751 17.0647 40.4654 17.3442 40.5373 17.6309C40.6866 17.8902 40.8395 18.1514 40.9925 18.4089C41.0607 17.2912 40.8082 16.8583 40.5409 15.8392C40.3566 15.1214 40.6257 14.926 41.0441 14.3781C41.3058 14.0439 41.5731 13.7315 41.9859 13.5854C43.0918 13.4211 43.842 15.0192 44.159 15.8447C44.3433 16.3269 44.5036 16.8163 44.7119 17.2948C44.852 15.9397 44.5184 15.0739 43.9949 13.8594C43.7885 13.3809 43.8733 13.3243 44.3636 13.1288C45.3588 12.7526 46.0224 12.8001 46.6509 13.7096C46.7903 13.8934 46.9172 14.0862 47.0305 14.2868C47.1522 14.652 47.248 15.0082 47.3826 15.3826C47.5171 15.757 47.672 16.1369 47.8397 16.5095C47.9447 15.3333 47.8065 14.6466 47.3125 13.5873C47.1625 13.3079 47.0527 13.0092 46.9863 12.6996C46.9753 12.6101 46.9863 12.6284 47.0693 12.5444C47.9318 11.8504 49.246 12.4859 49.7326 13.3352C49.9814 13.7699 50.1602 14.4858 50.3297 14.979L50.573 15.6858H50.7684C50.8274 14.042 50.1196 12.7234 49.4284 11.2878C50.0938 11.1198 50.7629 10.9646 51.443 10.8623L51.0209 10.5007C50.3451 10.4539 49.678 10.322 49.0359 10.108C48.3336 9.80297 47.5964 9.57832 46.9181 9.22035C43.8991 7.75924 40.9962 5.79951 37.5735 5.42328C37.192 3.80144 36.8676 2.16681 36.4824 0.544976L36.4806 0.546803ZM14.3429 48.5518L60.3747 48.581C68.9194 48.5262 67.2642 31.5955 59.702 31.6083C44.3206 31.601 28.941 31.601 13.5633 31.6083C3.46119 31.8457 3.29347 48.5572 14.3411 48.5554L14.3429 48.5518ZM23.529 2.39877C24.8439 1.66677 26.2525 1.11387 27.7166 0.755012C27.9752 1.2287 28.2066 1.71652 28.4096 2.21613C28.6289 2.72752 28.8243 3.24804 29.051 3.76126C29.2537 4.22151 29.4436 4.68907 29.6334 5.15662C28.4418 5.4381 27.2825 5.84019 26.1739 6.35656C25.2523 5.06348 24.4026 3.72473 23.529 2.40059V2.39877ZM17.8154 6.94101C18.9767 5.67708 20.2747 4.5434 21.6859 3.56035C22.5374 4.83883 23.4811 6.06434 24.1833 7.42683C23.1917 8.18661 22.1688 8.9263 21.3191 9.84863C20.1008 8.93543 18.9599 7.93822 17.8172 6.94101H17.8154ZM65.0138 9.13268C65.8156 12.3691 66.7519 15.5707 67.4854 18.8254C67.6697 19.6399 67.6587 20.4472 66.6744 20.6518C65.4912 20.8581 65.1668 18.7249 64.9825 17.9341L64.9677 17.8756C64.1494 14.5717 63.3089 11.275 62.5016 7.96744C62.2971 7.29898 61.663 5.26073 62.1846 4.71464C62.5532 4.33657 63.2905 4.34936 63.672 4.71464C64.0222 5.04339 64.166 5.75568 64.2931 6.21776C64.5586 7.18209 64.776 8.15922 65.0156 9.12903L65.0138 9.13268ZM64.6599 18.9423C64.7963 19.6144 65.1631 20.8545 64.3374 21.2271C63.9006 21.4243 63.3642 21.3768 63.062 20.975C62.7597 20.5732 62.6362 19.965 62.509 19.5011L62.3247 18.8509C61.4326 15.5981 60.7341 12.296 59.866 9.03589C59.6946 8.47153 58.985 6.14836 59.2227 5.7155C59.4974 5.21872 60.6512 4.87718 61.0327 5.49085C61.4142 6.10452 61.6391 7.2241 61.8197 7.94735C62.7412 11.6166 63.7052 15.2749 64.6452 18.9404L64.6599 18.9423ZM67.655 8.05328C68.3922 10.7527 68.9894 13.4685 69.7746 16.1588C70.0105 16.9661 70.3902 18.1496 69.3156 18.5331C68.6171 18.7834 68.1305 18.3797 67.8725 17.7587C67.6144 17.1378 67.467 16.2611 67.3103 15.5999C66.9294 14.0061 66.5295 12.4178 66.1105 10.8349C65.7916 9.37377 65.2774 7.91265 65.0322 6.45154C64.8811 5.53834 65.3161 4.97033 66.2708 5.17306C66.9288 5.31187 67.1113 5.847 67.279 6.41866C67.4338 6.95562 67.5039 7.5145 67.6476 8.06242L67.655 8.05328ZM68.0697 6.18306C71.8978 5.92371 74.7768 14.4219 70.6298 16.6227C69.8151 13.1343 68.9101 9.66782 68.0697 6.18306ZM14.4351 12.3837C15.0857 11.0321 15.7382 9.67695 16.6782 8.49527C17.7932 9.445 18.9507 10.3582 20.0031 11.3974C19.3479 12.1728 18.8022 13.033 18.3812 13.9544C18.1858 14.3781 17.9874 14.8043 17.7859 15.2328C16.9288 14.7598 16.1271 14.1936 15.2332 13.7845C14.8461 13.5489 14.4664 13.2987 14.1015 13.0302C14.2121 12.8183 14.3171 12.6047 14.424 12.3891L14.4351 12.3837Z" fill="black"/>
<path d="M15.6884 36.6583C17.2896 36.659 18.6674 37.7803 18.9792 39.3366C19.291 40.8928 18.45 42.4506 16.9705 43.0573C15.491 43.664 13.785 43.1506 12.8959 41.8311C12.0067 40.5116 12.182 38.7534 13.3145 37.6318C13.9436 37.0073 14.7979 36.657 15.6884 36.6583ZM19.4373 35.1497L20.5672 36.2693C20.7567 36.4576 20.7567 36.7624 20.5672 36.9506L19.8668 37.6446L19.8262 37.6793C20.014 38.0049 20.1625 38.3512 20.2686 38.7112H21.3026C21.4311 38.7112 21.5544 38.7618 21.6454 38.8518C21.7363 38.942 21.7873 39.0642 21.7873 39.1916V40.775C21.7873 41.0413 21.5694 41.2572 21.3007 41.2572H20.3073C20.2097 41.6335 20.0661 41.9966 19.8797 42.3384L20.5653 43.0179C20.7549 43.2061 20.7549 43.5109 20.5653 43.6991L19.4355 44.8187C19.2455 45.0066 18.938 45.0066 18.748 44.8187L18.1048 44.1813C17.7503 44.3924 17.37 44.5576 16.9731 44.6726V45.6223C16.9731 45.8886 16.7552 46.1045 16.4865 46.1045H14.8959C14.7673 46.1045 14.644 46.0539 14.5531 45.9638C14.4622 45.8737 14.4111 45.7515 14.4112 45.6241V44.7109C13.9959 44.6051 13.5967 44.4448 13.2242 44.2342L12.5607 44.8917C12.3707 45.0796 12.0631 45.0796 11.8732 44.8917L10.7434 43.7722C10.5538 43.5839 10.5538 43.2791 10.7434 43.0909L11.4069 42.4334C11.1944 42.0643 11.0327 41.6687 10.9258 41.2572H10.0043C9.8757 41.2572 9.75238 41.2067 9.66145 41.1166C9.57055 41.0265 9.5195 40.9043 9.51953 40.7769V39.1934C9.51953 38.9271 9.73738 38.7112 10.0061 38.7112H10.9645C11.0806 38.3179 11.2473 37.941 11.4603 37.5898L10.8171 36.9524C10.6275 36.7642 10.6275 36.4594 10.8171 36.2712L11.9469 35.1516C12.1369 34.9637 12.4444 34.9637 12.6344 35.1516L13.32 35.831C13.665 35.6463 14.0314 35.504 14.4112 35.4073V34.4228C14.4112 34.1565 14.629 33.9407 14.8977 33.9407H16.4957C16.6243 33.9406 16.7476 33.9912 16.8385 34.0813C16.9294 34.1714 16.9805 34.2936 16.9805 34.421V35.4018C16.9805 35.4164 16.9805 35.431 16.9805 35.4456C17.3437 35.5507 17.6933 35.6979 18.0218 35.884L18.0568 35.8438L18.7572 35.1497C18.9472 34.9619 19.2548 34.9619 19.4447 35.1497H19.4373ZM20.1193 36.6109L19.0945 35.5954L18.4992 36.1853L18.5489 36.2346C18.8961 36.4967 19.206 36.8039 19.4705 37.1478L19.5203 37.1971L20.1156 36.6072L20.1193 36.6109ZM21.2251 40.7038V39.2664H20.3939C20.4731 39.7418 20.4806 40.2263 20.416 40.7038H21.2251ZM19.089 44.3749L20.1138 43.3594L19.5737 42.8243C19.2936 43.2177 18.9556 43.5674 18.5711 43.8617L19.0871 44.373L19.089 44.3749ZM14.9586 45.5492H16.4091V44.7986C15.9293 44.877 15.4405 44.8844 14.9586 44.8205V45.5511V45.5492ZM11.1783 43.4324L12.2031 44.4479L12.7302 43.9256C12.3395 43.6396 11.994 43.2973 11.7055 42.9101L11.1783 43.4324ZM10.0725 39.2664V40.7038H10.8097C10.7451 40.2263 10.7525 39.7418 10.8318 39.2664H10.0725ZM12.2842 35.5954L11.2594 36.6109L11.7755 37.1223C12.0724 36.7411 12.4253 36.4062 12.8224 36.1287L12.2824 35.5936L12.2842 35.5954ZM16.4146 34.4996H14.9641V35.3013C15.446 35.2372 15.9349 35.2446 16.4146 35.3233V34.4996ZM18.5158 37.1898C17.1322 35.8193 14.9643 35.6081 13.3378 36.6853C11.7113 37.7624 11.0791 39.8281 11.8278 41.6191C12.5765 43.4101 14.4976 44.4276 16.4163 44.0496C18.335 43.6715 19.7172 42.0031 19.7175 40.0646C19.7189 38.9861 19.2864 37.9515 18.5158 37.1898ZM17.5352 38.1615C16.6544 37.2891 15.2744 37.155 14.2393 37.841C13.2042 38.5271 12.8024 39.8422 13.2798 40.9819C13.7571 42.1217 14.9805 42.7685 16.2017 42.5267C17.4228 42.2849 18.3015 41.2219 18.3001 39.9879C18.3004 39.3025 18.0251 38.6453 17.5352 38.1615Z" fill="black"/>
<path d="M29.1357 36.6583C30.7369 36.659 32.1147 37.7803 32.4265 39.3366C32.7383 40.8928 31.8973 42.4506 30.4178 43.0573C28.9383 43.664 27.2323 43.1506 26.3432 41.8311C25.454 40.5116 25.6293 38.7534 26.7618 37.6318C27.3909 37.0073 28.2453 36.657 29.1357 36.6583ZM32.8846 35.1497L34.0145 36.2693C34.2041 36.4576 34.2041 36.7624 34.0145 36.9506L33.3141 37.6446L33.2735 37.6793C33.4613 38.0049 33.6098 38.3512 33.7159 38.7112H34.7499C34.8784 38.7112 35.0018 38.7618 35.0927 38.8518C35.1836 38.942 35.2346 39.0642 35.2346 39.1916V40.775C35.2346 41.0413 35.0168 41.2572 34.748 41.2572H33.7546C33.657 41.6335 33.5134 41.9966 33.327 42.3384L34.0126 43.0179C34.2022 43.2061 34.2022 43.5109 34.0126 43.6991L32.8828 44.8187C32.6928 45.0066 32.3853 45.0066 32.1953 44.8187L31.5521 44.1813C31.1976 44.3924 30.8173 44.5575 30.4204 44.6726V45.6223C30.4204 45.8886 30.2025 46.1045 29.9338 46.1045H28.3358C28.2073 46.1045 28.0839 46.0539 27.993 45.9638C27.9021 45.8737 27.8511 45.7515 27.8511 45.6241V44.7109C27.4358 44.6051 27.0366 44.4448 26.6641 44.2342L26.0006 44.8917C25.8107 45.0796 25.5031 45.0796 25.3131 44.8917L24.1833 43.7722C23.9937 43.5839 23.9937 43.2791 24.1833 43.0909L24.8468 42.4334C24.6344 42.0643 24.4726 41.6687 24.3658 41.2572H23.4442C23.3156 41.2572 23.1923 41.2067 23.1014 41.1166C23.0105 41.0265 22.9594 40.9043 22.9595 40.7769V39.1934C22.9595 38.9271 23.1773 38.7112 23.4461 38.7112H24.4045C24.5205 38.3179 24.6872 37.941 24.9003 37.5898L24.257 36.9524C24.0674 36.7642 24.0674 36.4594 24.257 36.2712L25.3869 35.1516C25.5768 34.9637 25.8844 34.9637 26.0743 35.1516L26.76 35.831C27.1049 35.6463 27.4713 35.504 27.8511 35.4073V34.4228C27.8511 34.1565 28.0689 33.9407 28.3377 33.9407H29.9357C30.0642 33.9406 30.1875 33.9912 30.2785 34.0813C30.3694 34.1714 30.4204 34.2936 30.4204 34.421V35.4018C30.4204 35.4164 30.4204 35.431 30.4204 35.4456C30.7837 35.5507 31.1332 35.6979 31.4618 35.884L31.4968 35.8438L32.1972 35.1497C32.3871 34.9619 32.6947 34.9619 32.8846 35.1497ZM33.5666 36.6109L32.5418 35.5954L31.9465 36.1853L31.9963 36.2346C32.3434 36.4967 32.6533 36.8039 32.9178 37.1478L32.9676 37.1971L33.5629 36.6072L33.5666 36.6109ZM34.6725 40.7038V39.2664H33.8412C33.9205 39.7418 33.928 40.2263 33.8633 40.7038H34.6725ZM32.5363 44.3749L33.5611 43.3594L33.021 42.8243C32.7409 43.2177 32.403 43.5674 32.0184 43.8617L32.5344 44.373L32.5363 44.3749ZM28.4059 45.5492H29.8546V44.7986C29.3754 44.8769 28.8872 44.8843 28.4059 44.8205V45.5511V45.5492ZM24.6256 43.4324L25.6504 44.4479L26.1775 43.9256C25.7868 43.6396 25.4414 43.2973 25.1528 42.9101L24.6256 43.4324ZM23.5198 39.2664V40.7038H24.257C24.1924 40.2263 24.1998 39.7418 24.2791 39.2664H23.5198ZM25.7315 35.5954L24.7067 36.6109L25.2228 37.1223C25.5198 36.7411 25.8727 36.4062 26.2697 36.1287L25.7297 35.5936L25.7315 35.5954ZM29.8619 34.4996H28.4114V35.3013C28.8933 35.2373 29.3822 35.2447 29.8619 35.3233V34.4996ZM31.9631 37.1898C30.5795 35.8193 28.4116 35.6081 26.7851 36.6853C25.1587 37.7624 24.5265 39.8281 25.2751 41.6191C26.0238 43.4101 27.9449 44.4276 29.8636 44.0496C31.7824 43.6715 33.1645 42.0031 33.1648 40.0646C33.1662 38.9861 32.7337 37.9515 31.9631 37.1898ZM30.9825 38.1615C30.1018 37.2891 28.7217 37.155 27.6866 37.841C26.6515 38.5271 26.2498 39.8422 26.7271 40.9819C27.2044 42.1217 28.4278 42.7685 29.649 42.5267C30.8701 42.2849 31.7488 41.2219 31.7474 39.9879C31.7477 39.3025 31.4725 38.6453 30.9825 38.1615Z" fill="black"/>
<path d="M42.9205 36.4574C44.5216 36.4581 45.8994 37.5794 46.2112 39.1356C46.523 40.6919 45.682 42.2497 44.2025 42.8564C42.723 43.4631 41.0171 42.9497 40.1279 41.6302C39.2387 40.3107 39.414 38.5525 40.5465 37.4309C41.1757 36.8064 42.03 36.4561 42.9205 36.4574ZM46.6694 34.9488L47.7992 36.0684C47.9888 36.2566 47.9888 36.5614 47.7992 36.7497L47.0988 37.4437L47.0583 37.4784C47.2461 37.804 47.3946 38.1503 47.5006 38.5103H48.5346C48.6632 38.5103 48.7865 38.5609 48.8774 38.6509C48.9683 38.741 49.0194 38.8632 49.0193 38.9906V40.5741C49.0193 40.8404 48.8015 41.0563 48.5327 41.0563H47.5393C47.4417 41.4326 47.2981 41.7957 47.1117 42.1375L47.7973 42.8169C47.9869 43.0052 47.9869 43.31 47.7973 43.4982L46.6675 44.6178C46.4776 44.8056 46.17 44.8056 45.98 44.6178L45.3368 43.9804C44.9824 44.1915 44.602 44.3566 44.2051 44.4717V45.425C44.2051 45.6913 43.9873 45.9072 43.7185 45.9072H42.1206C41.992 45.9072 41.8687 45.8566 41.7777 45.7666C41.6868 45.6765 41.6358 45.5543 41.6358 45.4269V44.5137C41.2205 44.4078 40.8213 44.2475 40.4489 44.037L39.778 44.6945C39.588 44.8823 39.2804 44.8823 39.0905 44.6945L37.9606 43.5749C37.7711 43.3867 37.7711 43.0819 37.9606 42.8936L38.6242 42.2361C38.4117 41.867 38.2499 41.4715 38.1431 41.0599H37.2216C37.093 41.06 36.9697 41.0094 36.8787 40.9193C36.7878 40.8292 36.7368 40.707 36.7368 40.5796V38.9961C36.7368 38.7298 36.9547 38.514 37.2234 38.514H38.1818C38.2979 38.1206 38.4645 37.7437 38.6776 37.3925L38.0344 36.7551C37.8448 36.5669 37.8448 36.2621 38.0344 36.0739L39.1642 34.9543C39.3541 34.7664 39.6617 34.7664 39.8517 34.9543L40.5373 35.6337C40.8823 35.449 41.2487 35.3067 41.6284 35.21V34.2256C41.6284 33.9593 41.8463 33.7434 42.115 33.7434H43.713C43.8416 33.7434 43.9649 33.794 44.0558 33.884C44.1467 33.9741 44.1978 34.0963 44.1977 34.2237V35.1972C44.1977 35.2118 44.1977 35.2264 44.1977 35.241C44.561 35.3462 44.9105 35.4933 45.2391 35.6794L45.2741 35.6392L45.9745 34.9452C46.1645 34.7573 46.472 34.7573 46.662 34.9452L46.6694 34.9488ZM47.3513 36.4099L46.3265 35.3945L45.7312 35.9844L45.781 36.0337C46.1281 36.2958 46.438 36.603 46.7025 36.9469L46.7523 36.9962L47.3476 36.4063L47.3513 36.4099ZM48.4572 40.5029V39.0655H47.6296C47.7089 39.5409 47.7163 40.0253 47.6517 40.5029H48.4572ZM46.321 44.174L47.3458 43.1585L46.8058 42.6233C46.5257 43.0168 46.1877 43.3665 45.8031 43.6607L46.3192 44.1721L46.321 44.174ZM42.1906 45.3483H43.6485V44.5977C43.1694 44.6759 42.6811 44.6833 42.1998 44.6196V45.3501L42.1906 45.3483ZM38.4159 43.2334L39.4407 44.2488L39.9678 43.7265C39.577 43.4405 39.2316 43.0982 38.943 42.711L38.4159 43.2334ZM37.31 39.0673V40.4938H38.0473C37.9827 40.0162 37.9902 39.5318 38.0694 39.0564L37.31 39.0673ZM39.5218 35.3963L38.4878 36.4099L39.0038 36.9213C39.3008 36.5402 39.6537 36.2053 40.0507 35.9278L39.5107 35.3926L39.5218 35.3963ZM43.6522 34.3005H42.2035V35.1022C42.6848 35.0383 43.1731 35.0457 43.6522 35.1242V34.3005ZM45.7533 36.9907C44.3697 35.6202 42.2019 35.409 40.5754 36.4862C38.9489 37.5634 38.3167 39.629 39.0654 41.42C39.814 43.211 41.7351 44.2286 43.6539 43.8505C45.5726 43.4725 46.9547 41.804 46.955 39.8655C46.9564 38.787 46.524 37.7524 45.7533 36.9907ZM44.7728 37.9624C43.892 37.09 42.512 36.9559 41.4769 37.6419C40.4418 38.328 40.04 39.6431 40.5173 40.7829C40.9946 41.9226 42.2181 42.5694 43.4392 42.3276C44.6604 42.0858 45.539 41.0228 45.5377 39.7888C45.538 39.1034 45.2627 38.4462 44.7728 37.9624Z" fill="black"/>
<path d="M56.5504 36.4575C58.1516 36.4581 59.5293 37.5795 59.8411 39.1357C60.1529 40.692 59.3119 42.2498 57.8324 42.8565C56.353 43.4632 54.647 42.9498 53.7578 41.6303C52.8687 40.3108 53.044 38.5526 54.1765 37.431C54.8056 36.8065 55.6599 36.4562 56.5504 36.4575ZM60.2993 34.9489L61.4291 36.0685C61.6187 36.2567 61.6187 36.5615 61.4291 36.7497L60.7287 37.4438L60.6882 37.4785C60.876 37.8041 61.0245 38.1504 61.1305 38.5104H62.1645C62.2931 38.5104 62.4164 38.5609 62.5074 38.651C62.5983 38.7411 62.6493 38.8633 62.6493 38.9907V40.5742C62.6493 40.8405 62.4314 41.0564 62.1627 41.0564H61.1692C61.0717 41.4327 60.9281 41.7958 60.7416 42.1376L61.4273 42.817C61.6169 43.0053 61.6169 43.31 61.4273 43.4983L60.2975 44.6179C60.1075 44.8057 59.7999 44.8057 59.61 44.6179L58.9667 43.9804C58.6123 44.1916 58.232 44.3567 57.8351 44.4717V45.4251C57.8351 45.6914 57.6172 45.9073 57.3485 45.9073H55.7505C55.6219 45.9073 55.4986 45.8567 55.4077 45.7667C55.3143 45.677 55.2612 45.554 55.2602 45.4251V44.5119C54.8449 44.4061 54.4457 44.2458 54.0733 44.0352L53.4171 44.6946C53.2272 44.8824 52.9196 44.8824 52.7296 44.6946L51.5998 43.575C51.4102 43.3868 51.4102 43.082 51.5998 42.8937L52.2633 42.2362C52.0509 41.8671 51.8891 41.4716 51.7823 41.06H50.8607C50.7321 41.0601 50.6088 41.0095 50.5179 40.9194C50.427 40.8293 50.3759 40.7071 50.376 40.5797V38.9962C50.376 38.7299 50.5938 38.514 50.8626 38.514H51.821C51.935 38.1197 52.0998 37.7416 52.3112 37.389L51.668 36.7516C51.4784 36.5633 51.4784 36.2585 51.668 36.0703L52.7978 34.9507C52.9878 34.7629 53.2954 34.7629 53.4853 34.9507L54.1709 35.6302C54.5149 35.4424 54.8807 35.2971 55.2602 35.1973V34.2129C55.2602 33.9466 55.4781 33.7307 55.7468 33.7307H57.3448C57.4734 33.7307 57.5967 33.7813 57.6876 33.8713C57.7785 33.9615 57.8296 34.0836 57.8295 34.2111V35.1973C57.8295 35.2119 57.8295 35.2265 57.8295 35.2411C58.1928 35.3462 58.5423 35.4934 58.8709 35.6795L58.9059 35.6393L59.6063 34.9453C59.7962 34.7574 60.1038 34.7574 60.2938 34.9453L60.2993 34.9489ZM60.9812 36.41L59.9565 35.3946L59.3612 35.9845L59.4109 36.0338C59.758 36.2959 60.068 36.6031 60.3325 36.947L60.3822 36.9963L60.9776 36.4064L60.9812 36.41ZM62.0871 40.503V39.0656H61.2559C61.3351 39.541 61.3426 40.0254 61.278 40.503H62.0871ZM59.9509 44.174L60.9757 43.1586L60.4357 42.6234C60.1556 43.0168 59.8176 43.3665 59.433 43.6608L59.9491 44.1722L59.9509 44.174ZM55.8205 45.3484H57.2711V44.5978C56.7913 44.6762 56.3025 44.6836 55.8205 44.6197V45.3502V45.3484ZM52.0458 43.2334L53.0706 44.2489L53.5977 43.7266C53.207 43.4406 52.8615 43.0983 52.573 42.7111L52.0458 43.2334ZM50.94 39.0674V40.4939H51.6772C51.6126 40.0163 51.62 39.5319 51.6993 39.0565L50.94 39.0674ZM53.1517 35.3964L52.1269 36.41L52.643 36.9214C52.94 36.5403 53.2929 36.2054 53.6899 35.9279L53.1499 35.3927L53.1517 35.3964ZM57.2821 34.3005H55.8316V35.1023C56.3135 35.0383 56.8024 35.0457 57.2821 35.1243V34.3005ZM59.3833 36.9908C57.9997 35.6203 55.8318 35.4091 54.2053 36.4863C52.5788 37.5634 51.9466 39.6291 52.6953 41.4201C53.444 43.2111 55.3651 44.2286 57.2838 43.8506C59.2025 43.4725 60.5847 41.8041 60.585 39.8656C60.5864 38.787 60.1539 37.7525 59.3833 36.9908ZM58.3935 37.9552C57.5127 37.0828 56.1327 36.9486 55.0976 37.6347C54.0625 38.3207 53.6607 39.6359 54.1381 40.7756C54.6154 41.9154 55.8388 42.5622 57.06 42.3204C58.2811 42.0786 59.1598 41.0156 59.1584 39.7816C59.1587 39.0962 58.8834 38.439 58.3935 37.9552Z" fill="black"/>
</mask>
<g mask="url(#mask0_27_2362)">
<rect x="-6.14648" y="-3.55273" width="86.9554" height="57.8222" fill="white"/>
</g>
</svg>
