<svg width="1920" height="1998" viewBox="0 0 1920 1998" fill="none" xmlns="http://www.w3.org/2000/svg">
<path d="M1983.79 -47.617L1955.29 -56.1408C1948.12 -58.2751 1940.66 -59.1056 1933.27 -58.5949C1932.33 -68.6344 1929.32 -78.4013 1924.43 -87.2296L1909.93 -113.389C1908.75 -115.518 1906.14 -116.297 1904.11 -115.129L1879.14 -100.775C1870.72 -95.9277 1863.45 -89.2363 1857.83 -81.1567C1851.74 -85.6982 1844.96 -89.1246 1837.79 -91.2813L1809.29 -99.805C1807.02 -100.484 1804.69 -99.1452 1804.08 -96.8147L1796.53 -67.5655C1794.64 -60.2 1794.02 -52.518 1794.69 -44.8662C1785 -44.1413 1775.62 -41.2643 1767.19 -36.4294L1742.22 -22.076C1740.19 -20.9081 1739.5 -18.2354 1740.68 -16.1068L1755.18 10.0528C1760.08 18.8755 1766.74 26.5507 1774.7 32.5563C1770.45 38.7358 1767.3 45.6613 1765.38 53.0203L1757.83 82.2695C1757.23 84.6002 1758.58 87.04 1760.85 87.7195L1789.35 96.2433C1796.53 98.3776 1803.98 99.2081 1811.37 98.6974C1812.31 108.735 1815.33 118.5 1820.21 127.326L1834.72 153.486C1835.9 155.614 1838.5 156.393 1840.53 155.225L1865.51 140.872C1873.93 136.024 1881.2 129.333 1886.82 121.253C1892.9 125.795 1899.68 129.221 1906.86 131.378L1935.36 139.902C1937.63 140.58 1939.96 139.242 1940.56 136.911L1948.12 107.662C1950.01 100.297 1950.63 92.6146 1949.95 84.9627C1959.65 84.2384 1969.03 81.3609 1977.46 76.526L2002.43 62.1726C2004.46 61.0047 2005.15 58.332 2003.97 56.2034L1989.46 30.0437C1984.56 21.2211 1977.91 13.5458 1969.95 7.54029C1974.2 1.36072 1977.35 -5.56472 1979.26 -12.9237L1986.82 -42.1729C1987.42 -44.5022 1986.06 -46.9381 1983.79 -47.617ZM1864.52 -75.5287C1869.47 -82.7634 1875.92 -88.75 1883.41 -93.0667L1904.71 -105.305L1917.07 -82.9999C1921.43 -75.139 1924.08 -66.4283 1924.85 -57.4823C1918.54 -56.1648 1912.48 -53.8581 1906.88 -50.641L1905.4 -49.7951C1897.67 -45.3518 1890.97 -39.2484 1885.74 -31.8839C1884.79 -41.0951 1881.98 -50.0438 1877.48 -58.1449L1876.63 -59.6866C1873.38 -65.5511 1869.3 -70.8928 1864.52 -75.5287ZM1909.68 -42.0863L1911.15 -42.9323C1915.5 -45.4212 1920.18 -47.2792 1925.04 -48.456C1924.8 -44.2943 1924.16 -40.1777 1923.12 -36.1696L1922.79 -34.9042C1918.78 -19.2118 1908.82 -5.98288 1895.13 1.83567L1879.07 11.0887L1883.99 -7.96504C1887.71 -22.54 1896.96 -34.8267 1909.68 -42.0863ZM1869.27 -55.457L1870.13 -53.9152C1877.53 -40.6379 1879.56 -24.9785 1875.76 -10.4286L1870.84 8.62898L1861.5 -8.22622C1853.52 -22.5244 1851.33 -39.3863 1855.42 -55.0554L1855.75 -56.3209C1856.78 -60.3317 1858.2 -64.2148 1860 -67.9114C1863.61 -64.1998 1866.73 -60.0098 1869.27 -55.457ZM1804.76 -65.11L1811.23 -90.133L1835.61 -82.8408C1841.98 -80.9233 1848 -77.8492 1853.37 -73.7645C1850.86 -69.0347 1848.91 -64.0084 1847.53 -58.7848L1847.2 -57.5193C1844.69 -47.7635 1844.27 -37.5068 1845.98 -27.4608C1838.41 -34.1388 1829.57 -39.0719 1820.07 -41.9186L1818.84 -42.2874C1813.73 -43.7887 1808.49 -44.6785 1803.22 -44.9393C1802.56 -51.7331 1803.08 -58.5648 1804.76 -65.11ZM1810.4 -21.6196C1807.88 -26.1776 1805.97 -31.0524 1804.71 -36.1104C1808.75 -35.7642 1812.75 -34.9984 1816.66 -33.8251L1817.89 -33.4563C1833.18 -28.9266 1846.23 -18.3087 1854.13 -3.96882L1863.48 12.8864L1844.91 7.33375C1830.71 3.12198 1818.59 -6.74955 1811.26 -20.0778L1810.4 -21.6196ZM1842.73 15.7486L1861.3 21.2991L1845.21 30.5473C1831.57 38.442 1815.29 40.2908 1800.02 35.6812L1798.79 35.3124C1794.88 34.1488 1791.09 32.5829 1787.47 30.6395C1790.97 26.9956 1794.95 23.8736 1799.3 21.3587L1800.77 20.5128C1813.44 13.1805 1828.55 11.4652 1842.73 15.7486ZM1750.17 -16.4821L1771.46 -28.7207C1778.97 -33.0294 1787.34 -35.561 1795.98 -36.1374C1797.41 -29.5776 1799.79 -23.2566 1803.04 -17.3899L1803.9 -15.8482C1808.39 -7.74445 1814.46 -0.669517 1821.72 4.91426C1812.82 5.66755 1804.23 8.356 1796.49 12.8041L1795.02 13.65C1789.42 16.867 1784.35 20.9558 1779.98 25.7774C1772.86 20.4885 1766.9 13.6767 1762.54 5.82317L1750.17 -16.4821ZM1791.53 87.7951L1767.14 80.503L1773.61 55.48C1775.31 48.9418 1778.14 42.8001 1781.96 37.3463C1786.6 40.0498 1791.52 42.197 1796.61 43.7452L1797.84 44.114C1807.35 46.9534 1817.29 47.6361 1826.97 46.1157C1820.69 53.771 1816.13 62.7863 1813.61 72.5379L1813.28 73.8034C1811.95 79.0426 1811.22 84.4378 1811.09 89.8815C1804.53 90.3966 1797.91 89.69 1791.53 87.7951ZM1880.12 115.625C1875.18 122.86 1868.73 128.847 1861.23 133.163L1839.94 145.402L1827.57 123.096C1823.22 115.236 1820.56 106.525 1819.79 97.5789C1826.11 96.2614 1832.17 93.9547 1837.77 90.7376L1839.24 89.8916C1846.98 85.4484 1853.68 79.3449 1858.91 71.9804C1859.85 81.1917 1862.67 90.1404 1867.16 98.2414L1868.02 99.7832C1871.27 105.647 1875.35 110.989 1880.12 115.625ZM1834.97 82.1829L1833.49 83.0288C1829.14 85.5173 1824.47 87.3758 1819.6 88.5525C1819.84 84.3909 1820.48 80.2742 1821.53 76.2662L1821.85 75.0007C1825.86 59.3083 1835.82 46.0794 1849.52 38.2609L1865.58 29.0079L1860.66 48.0616C1856.93 62.6362 1847.68 74.9233 1834.97 82.1829ZM1875.38 95.5535L1874.52 94.0118C1867.11 80.7345 1865.08 65.0751 1868.88 50.5252L1873.8 31.4676L1883.15 48.3228C1891.13 62.6209 1893.31 79.4828 1889.22 95.152L1888.9 96.4174C1887.87 100.428 1886.44 104.312 1884.65 108.008C1881.04 104.297 1877.92 100.107 1875.38 95.5535ZM1939.88 105.207L1933.42 130.23L1909.04 122.937C1902.67 121.024 1896.66 117.957 1891.29 113.88C1893.79 109.144 1895.74 104.111 1897.11 98.8814L1897.44 97.6159C1899.96 87.8604 1900.38 77.6033 1898.67 67.5573C1906.23 74.2353 1915.07 79.1685 1924.57 82.0151L1925.81 82.3839C1930.91 83.8911 1936.16 84.7862 1941.44 85.0513C1942.09 91.8411 1941.56 98.667 1939.88 105.207ZM1934.25 61.7161C1936.76 66.2744 1938.67 71.1489 1939.93 76.2069C1935.9 75.8607 1931.9 75.095 1927.99 73.9217L1926.76 73.5529C1911.47 69.0232 1898.42 58.4053 1890.51 44.0654L1881.18 27.2294L1899.74 32.7821C1913.94 36.9917 1926.06 46.855 1933.39 60.1744L1934.25 61.7161ZM1901.91 24.3479L1883.34 18.7975L1899.43 9.54928C1913.08 1.65461 1929.35 -0.194238 1944.62 4.41534L1945.85 4.78414C1949.76 5.94773 1953.56 7.51363 1957.18 9.45706C1953.67 13.1009 1949.69 16.2232 1945.35 18.7378L1943.88 19.5837C1931.2 26.9158 1916.09 28.6311 1901.91 24.3479ZM1994.47 56.5787L1973.18 68.8172C1965.68 73.126 1957.31 75.6576 1948.67 76.234C1947.24 69.6742 1944.86 63.3531 1941.6 57.4865L1940.75 55.9447C1936.26 47.841 1930.19 40.7661 1922.93 35.1823C1931.82 34.429 1940.42 31.7406 1948.15 27.2925L1949.62 26.4466C1955.22 23.2296 1960.29 19.1408 1964.66 14.3192C1971.79 19.6081 1977.74 26.4199 1982.11 34.2734L1994.47 56.5787ZM1971.04 -15.3835C1969.34 -8.85005 1966.52 -2.71231 1962.7 2.73969C1958.06 0.0383611 1953.14 -2.10562 1948.04 -3.64862L1946.81 -4.0174C1937.3 -6.85631 1927.36 -7.53951 1917.67 -6.0192C1923.96 -13.6744 1928.52 -22.6897 1931.04 -32.4413L1931.37 -33.7068C1932.7 -38.948 1933.44 -44.3461 1933.57 -49.7934C1940.12 -50.3031 1946.74 -49.5928 1953.11 -47.6965L1977.5 -40.4064L1971.04 -15.3835Z" fill="#F59505" fill-opacity="0.5"/>
<path d="M178.792 179.162L142.574 168.33C133.454 165.618 123.984 164.563 114.591 165.212C113.401 152.454 109.57 140.043 103.36 128.825L84.9272 95.5829C83.4273 92.8781 80.1178 91.8883 77.5357 93.3724L45.803 111.612C35.1009 117.772 25.8645 126.275 18.7238 136.542C10.9896 130.771 2.37169 126.417 -6.7411 123.676L-42.9593 112.845C-45.8454 111.982 -48.805 113.683 -49.5705 116.645L-59.1723 153.813C-61.5753 163.172 -62.3657 172.934 -61.508 182.657C-73.8281 183.578 -85.7469 187.234 -96.4542 193.378L-128.187 211.617C-130.769 213.102 -131.646 216.498 -130.146 219.203L-111.713 252.445C-105.488 263.656 -97.0306 273.409 -86.9159 281.04C-92.3142 288.893 -96.319 297.693 -98.7497 307.045L-108.351 344.212C-109.116 347.174 -107.397 350.274 -104.511 351.138L-68.2929 361.969C-59.1727 364.682 -49.7027 365.737 -40.31 365.088C-39.1173 377.843 -35.2868 390.251 -29.0772 401.467L-10.6439 434.709C-9.144 437.414 -5.83447 438.404 -3.25241 436.92L28.4803 418.68C39.1823 412.52 48.4188 404.017 55.5595 393.75C63.2937 399.521 71.9116 403.875 81.0244 406.616L117.243 417.447C120.129 418.31 123.088 416.609 123.854 413.647L133.456 376.48C135.859 367.12 136.649 357.358 135.791 347.635C148.112 346.714 160.03 343.058 170.737 336.914L202.47 318.675C205.052 317.191 205.93 313.794 204.43 311.089L185.996 277.848C179.771 266.636 171.314 256.883 161.199 249.252C166.597 241.399 170.602 232.599 173.033 223.248L182.635 186.08C183.395 183.12 181.675 180.024 178.792 179.162ZM27.2275 143.693C33.5131 134.5 41.7085 126.893 51.2349 121.407L78.2921 105.856L94.0094 134.2C99.5432 144.189 102.917 155.258 103.895 166.626C95.8689 168.3 88.1663 171.231 81.0498 175.319L79.1796 176.394C69.3494 182.04 60.8339 189.796 54.1897 199.154C52.9869 187.449 49.4127 176.078 43.7005 165.784L42.6141 163.824C38.4833 156.372 33.295 149.584 27.2275 143.693ZM84.6115 186.19L86.4817 185.115C92.0111 181.952 97.949 179.591 104.132 178.096C103.832 183.384 103.014 188.615 101.692 193.708L101.276 195.316C96.1781 215.257 83.5205 232.067 66.1241 242.003L45.7124 253.761L51.9672 229.549C56.6991 211.028 68.4537 195.415 84.6115 186.19ZM33.2631 169.199L34.3494 171.158C43.763 188.03 46.3426 207.929 41.513 226.418L35.2608 250.635L23.3839 229.217C13.2479 211.048 10.4684 189.621 15.6654 169.71L16.0808 168.101C17.391 163.005 19.1997 158.07 21.4782 153.373C26.0705 158.089 30.0349 163.414 33.2631 169.199ZM-48.7114 156.933L-40.497 125.135L-9.5119 134.402C-1.41544 136.838 6.22819 140.745 13.0563 145.935C9.87434 151.946 7.38525 158.333 5.63863 164.97L5.22323 166.579C2.02513 178.976 1.4937 192.009 3.66464 204.775C-5.9481 196.289 -17.1807 190.02 -29.256 186.403L-30.823 185.934C-37.3098 184.027 -43.9699 182.896 -50.6709 182.564C-51.5082 173.931 -50.8446 165.25 -48.7114 156.933ZM-41.5452 212.197C-44.7423 206.405 -47.173 200.211 -48.7718 193.784C-43.6446 194.223 -38.5601 195.197 -33.5969 196.687L-32.0299 197.156C-12.5999 202.912 3.9841 216.405 14.0277 234.627L25.9047 256.045L2.31105 248.989C-15.7389 243.637 -31.1411 231.093 -40.4588 214.157L-41.5452 212.197ZM-0.459299 259.682L23.139 266.736L2.69297 278.487C-14.6497 288.519 -35.3262 290.869 -54.7301 285.011L-56.2971 284.543C-61.2634 283.064 -66.0848 281.074 -70.6881 278.605C-66.2338 273.974 -61.1759 270.007 -55.6539 266.811L-53.7837 265.736C-37.6786 256.419 -18.4772 254.239 -0.459299 259.682ZM-118.079 218.726L-91.0222 203.174C-81.4865 197.699 -70.8526 194.482 -59.8706 193.749C-58.0537 202.085 -55.0278 210.117 -50.8962 217.572L-49.8098 219.531C-44.1034 229.829 -36.3867 238.819 -27.1642 245.915C-38.467 246.872 -49.3888 250.288 -59.2156 255.941L-61.0858 257.016C-68.1994 261.103 -74.6446 266.299 -80.1997 272.426C-89.2537 265.705 -96.819 257.049 -102.362 247.07L-118.079 218.726ZM-65.5275 351.234L-96.5126 341.968L-88.2982 310.17C-86.1369 301.862 -82.5416 294.057 -77.6833 287.127C-71.7867 290.563 -65.5422 293.291 -59.0733 295.258L-57.5063 295.727C-45.4261 299.335 -32.7948 300.203 -20.4887 298.271C-28.4695 307.998 -34.2642 319.455 -37.4714 331.846L-37.8868 333.454C-39.5754 340.112 -40.5074 346.968 -40.6646 353.885C-49.0023 354.54 -57.4231 353.642 -65.5275 351.234ZM47.0557 386.599C40.7702 395.792 32.5747 403.399 23.0484 408.885L-4.00884 424.437L-19.7261 396.093C-25.2599 386.103 -28.6341 375.035 -29.6114 363.667C-21.5856 361.992 -13.8831 359.061 -6.76648 354.973L-4.89628 353.898C4.93394 348.252 13.4494 340.496 20.0936 331.138C21.2964 342.843 24.8706 354.214 30.5828 364.509L31.6692 366.468C35.8006 373.919 40.9889 380.707 47.0557 386.599ZM-10.3282 344.102L-12.1984 345.177C-17.7282 348.34 -23.6657 350.701 -29.8492 352.197C-29.5485 346.908 -28.7306 341.677 -27.4084 336.584L-26.993 334.976C-21.8948 315.035 -9.23721 298.225 8.15914 288.289L28.5709 276.531L22.316 300.743C17.5848 319.264 5.82961 334.877 -10.3282 344.102ZM41.0202 361.093L39.9338 359.134C30.5203 342.262 27.9407 322.363 32.7703 303.874L39.0225 279.657L50.8994 301.075C61.0354 319.244 63.8149 340.671 58.6179 360.583L58.2024 362.191C56.8922 367.287 55.0839 372.222 52.805 376.919C48.2137 372.203 44.2493 366.879 41.0202 361.093ZM122.995 373.359L114.78 405.157L83.7952 395.89C75.7048 393.459 68.0663 389.562 61.2405 384.381C64.4196 378.363 66.9039 371.967 68.6446 365.322L69.0601 363.714C72.2576 351.317 72.7896 338.283 70.6187 325.517C80.2314 334.003 91.464 340.272 103.539 343.889L105.106 344.358C111.596 346.273 118.26 347.41 124.965 347.747C125.797 356.375 125.13 365.049 122.995 373.359ZM115.828 318.095C119.025 323.887 121.456 330.081 123.055 336.509C117.928 336.069 112.843 335.096 107.88 333.605L106.313 333.136C86.8832 327.38 70.2992 313.887 60.2555 295.665L48.3922 274.271L71.9858 281.327C90.0265 286.677 105.423 299.21 114.742 316.136L115.828 318.095ZM74.7426 270.61L51.1443 263.557L71.5903 251.805C88.933 241.773 109.61 239.423 129.013 245.281L130.58 245.749C135.547 247.228 140.368 249.218 144.971 251.687C140.517 256.318 135.46 260.285 129.937 263.481L128.067 264.556C111.963 273.873 92.7611 276.053 74.7426 270.61ZM192.363 311.566L165.306 327.118C155.77 332.594 145.136 335.81 134.154 336.543C132.337 328.207 129.311 320.175 125.179 312.72L124.093 310.761C118.387 300.463 110.67 291.473 101.447 284.377C112.75 283.42 123.672 280.004 133.499 274.352L135.369 273.277C142.483 269.189 148.928 263.993 154.483 257.866C163.537 264.587 171.102 273.243 176.645 283.222L192.363 311.566ZM162.581 220.122C160.425 228.424 156.839 236.223 151.99 243.151C146.086 239.719 139.833 236.994 133.357 235.034L131.79 234.565C119.71 230.958 107.078 230.089 94.772 232.021C102.753 222.294 108.547 210.838 111.755 198.446L112.17 196.838C113.866 190.178 114.804 183.318 114.967 176.396C123.298 175.748 131.711 176.651 139.806 179.061L170.796 188.324L162.581 220.122Z" fill="#F59505" fill-opacity="0.5"/>
<path d="M2259 651.252L2188.29 630.102C2170.48 624.807 2151.99 622.746 2133.65 624.013C2131.32 599.103 2123.84 574.869 2111.72 552.964L2075.72 488.057C2072.8 482.775 2066.33 480.843 2061.29 483.741L1999.33 519.354C1978.43 531.383 1960.4 547.985 1946.46 568.033C1931.35 556.764 1914.53 548.263 1896.73 542.911L1826.01 521.762C1820.38 520.078 1814.6 523.399 1813.11 529.182L1794.36 601.755C1789.67 620.031 1788.12 639.091 1789.8 658.077C1765.74 659.876 1742.47 667.014 1721.56 679.01L1659.6 714.624C1654.56 717.522 1652.85 724.154 1655.77 729.435L1691.77 794.343C1703.92 816.234 1720.44 835.278 1740.19 850.179C1729.65 865.511 1721.83 882.695 1717.08 900.954L1698.33 973.528C1696.84 979.311 1700.19 985.364 1705.83 987.05L1776.55 1008.2C1794.36 1013.5 1812.85 1015.56 1831.19 1014.29C1833.52 1039.2 1841 1063.42 1853.12 1085.32L1889.11 1150.23C1892.04 1155.51 1898.5 1157.44 1903.55 1154.55L1965.51 1118.93C1986.4 1106.9 2004.44 1090.3 2018.38 1070.25C2033.48 1081.52 2050.31 1090.02 2068.1 1095.38L2138.82 1116.53C2144.46 1118.21 2150.24 1114.89 2151.73 1109.11L2170.48 1036.53C2175.17 1018.26 2176.72 999.196 2175.04 980.21C2199.1 978.413 2222.37 971.273 2243.28 959.277L2305.24 923.663C2310.28 920.765 2311.99 914.134 2309.06 908.852L2273.07 843.944C2260.92 822.054 2244.4 803.01 2224.65 788.109C2235.19 772.776 2243.01 755.592 2247.76 737.333L2266.51 664.76C2267.99 658.98 2264.63 652.936 2259 651.252ZM1963.06 581.997C1975.33 564.046 1991.34 549.192 2009.94 538.482L2062.77 508.115L2093.46 563.459C2104.26 582.964 2110.85 604.577 2112.76 626.774C2097.09 630.043 2082.05 635.766 2068.15 643.749L2064.5 645.847C2045.31 656.872 2028.68 672.016 2015.71 690.289C2013.36 667.434 2006.38 645.23 1995.23 625.13L1993.1 621.304C1985.04 606.753 1974.91 593.5 1963.06 581.997ZM2075.11 664.975L2078.76 662.876C2089.56 656.7 2101.15 652.09 2113.22 649.17C2112.64 659.496 2111.04 669.71 2108.46 679.655L2107.65 682.795C2097.69 721.731 2072.98 754.555 2039.01 773.954L1999.15 796.913L2011.37 749.637C2020.61 713.473 2043.56 682.987 2075.11 664.975ZM1974.85 631.799L1976.97 635.625C1995.35 668.568 2000.38 707.423 1990.95 743.524L1978.75 790.81L1955.56 748.989C1935.76 713.512 1930.34 671.674 1940.48 632.796L1941.3 629.656C1943.85 619.704 1947.39 610.069 1951.83 600.897C1960.8 610.106 1968.54 620.503 1974.85 631.799ZM1814.78 607.848L1830.82 545.761L1891.32 563.854C1907.13 568.612 1922.06 576.239 1935.39 586.374C1929.18 598.11 1924.32 610.581 1920.91 623.542L1920.1 626.682C1913.85 650.888 1912.81 676.337 1917.05 701.264C1898.28 684.694 1876.35 672.454 1852.77 665.391L1849.71 664.476C1837.05 660.751 1824.04 658.543 1810.96 657.896C1809.32 641.039 1810.62 624.088 1814.78 607.848ZM1828.78 715.757C1822.53 704.447 1817.79 692.352 1814.67 679.802C1824.68 680.661 1834.6 682.561 1844.3 685.472L1847.36 686.387C1885.29 697.627 1917.68 723.972 1937.29 759.552L1960.48 801.373L1914.41 787.596C1879.17 777.146 1849.09 752.653 1830.9 719.582L1828.78 715.757ZM1909 808.475L1955.08 822.247L1915.15 845.194C1881.29 864.782 1840.92 869.37 1803.03 857.932L1799.97 857.017C1790.27 854.13 1780.86 850.245 1771.87 845.423C1780.57 836.382 1790.45 828.635 1801.23 822.395L1804.88 820.296C1836.33 802.103 1873.82 797.847 1909 808.475ZM1679.34 728.504L1732.17 698.138C1750.79 687.447 1771.55 681.165 1792.99 679.735C1796.54 696.011 1802.45 711.695 1810.52 726.252L1812.64 730.077C1823.78 750.184 1838.85 767.738 1856.86 781.593C1834.79 783.462 1813.46 790.133 1794.27 801.169L1790.62 803.268C1776.73 811.25 1764.15 821.395 1753.3 833.359C1735.62 820.236 1720.85 803.334 1710.03 783.848L1679.34 728.504ZM1781.95 987.238L1721.45 969.145L1737.49 907.057C1741.71 890.835 1748.73 875.596 1758.21 862.064C1769.73 868.772 1781.92 874.099 1794.55 877.941L1797.61 878.856C1821.2 885.901 1845.86 887.595 1869.89 883.823C1854.31 902.817 1842.99 925.186 1836.73 949.382L1835.92 952.521C1832.62 965.521 1830.8 978.908 1830.5 992.415C1814.22 993.693 1797.77 991.939 1781.95 987.238ZM2001.78 1056.29C1989.5 1074.24 1973.5 1089.1 1954.9 1099.81L1902.07 1130.17L1871.38 1074.83C1860.57 1055.32 1853.99 1033.71 1852.08 1011.51C1867.75 1008.24 1882.79 1002.52 1896.68 994.539L1900.34 992.44C1919.53 981.415 1936.16 966.271 1949.13 947.998C1951.48 970.853 1958.46 993.057 1969.61 1013.16L1971.73 1016.98C1979.8 1031.53 1989.93 1044.79 2001.78 1056.29ZM1889.73 973.313L1886.08 975.412C1875.28 981.586 1863.69 986.197 1851.61 989.117C1852.2 978.791 1853.8 968.577 1856.38 958.632L1857.19 955.492C1867.15 916.556 1891.86 883.732 1925.83 864.333L1965.68 841.374L1953.47 888.651C1944.23 924.813 1921.28 955.3 1889.73 973.313ZM1989.99 1006.49L1987.87 1002.66C1969.49 969.719 1964.45 930.865 1973.88 894.763L1986.09 847.477L2009.28 889.299C2029.07 924.775 2034.5 966.613 2024.35 1005.49L2023.54 1008.63C2020.98 1018.58 2017.45 1028.22 2013 1037.39C2004.04 1028.18 1996.3 1017.79 1989.99 1006.49ZM2150.05 1030.44L2134.02 1092.53L2073.51 1074.43C2057.72 1069.69 2042.8 1062.08 2029.47 1051.96C2035.68 1040.21 2040.53 1027.72 2043.93 1014.75L2044.74 1011.61C2050.99 987.4 2052.02 961.95 2047.79 937.024C2066.56 953.593 2088.49 965.833 2112.07 972.897L2115.13 973.812C2127.8 977.551 2140.81 979.772 2153.9 980.43C2155.53 997.277 2154.22 1014.21 2150.05 1030.44ZM2136.06 922.53C2142.3 933.84 2147.05 945.935 2150.17 958.485C2140.16 957.626 2130.23 955.726 2120.54 952.815L2117.48 951.9C2079.54 940.661 2047.16 914.315 2027.55 878.735L2004.39 836.962L2050.46 850.739C2085.68 861.184 2115.74 885.657 2133.94 918.705L2136.06 922.53ZM2055.84 829.812L2009.76 816.04L2049.68 793.093C2083.55 773.505 2123.92 768.918 2161.81 780.355L2164.87 781.27C2174.56 784.157 2183.98 788.042 2192.97 792.865C2184.27 801.906 2174.39 809.653 2163.61 815.892L2159.96 817.991C2128.51 836.183 2091.02 840.439 2055.84 829.812ZM2285.5 909.783L2232.67 940.15C2214.05 950.841 2193.29 957.122 2171.84 958.552C2168.3 942.276 2162.39 926.592 2154.32 912.036L2152.2 908.21C2141.06 888.103 2125.99 870.549 2107.98 856.694C2130.05 854.825 2151.38 848.155 2170.56 837.118L2174.22 835.019C2188.11 827.037 2200.69 816.892 2211.54 804.928C2229.22 818.051 2243.99 834.953 2254.81 854.439L2285.5 909.783ZM2227.35 731.23C2223.14 747.441 2216.14 762.67 2206.67 776.197C2195.14 769.495 2182.93 764.175 2170.29 760.347L2167.23 759.432C2143.64 752.388 2118.98 750.692 2094.95 754.465C2110.53 735.47 2121.85 713.102 2128.11 688.906L2128.92 685.766C2132.23 672.761 2134.06 659.368 2134.38 645.852C2150.65 644.587 2167.07 646.349 2182.88 651.055L2243.39 669.143L2227.35 731.23Z" fill="#F59505" fill-opacity="0.5"/>
<path d="M1812.32 1657.23L1773.91 1645.74C1764.23 1642.86 1754.19 1641.74 1744.22 1642.43C1742.96 1628.9 1738.9 1615.73 1732.31 1603.83L1712.76 1568.57C1711.16 1565.7 1707.65 1564.65 1704.92 1566.22L1671.25 1585.57C1659.9 1592.11 1650.1 1601.13 1642.53 1612.02C1634.32 1605.9 1625.18 1601.28 1615.52 1598.37L1577.1 1586.88C1574.04 1585.96 1570.9 1587.77 1570.08 1590.91L1559.9 1630.34C1557.35 1640.27 1556.51 1650.62 1557.42 1660.93C1544.35 1661.91 1531.71 1665.79 1520.35 1672.31L1486.69 1691.65C1483.95 1693.23 1483.02 1696.83 1484.61 1699.7L1504.17 1734.96C1510.77 1746.86 1519.74 1757.2 1530.47 1765.3C1524.74 1773.63 1520.5 1782.96 1517.92 1792.88L1507.73 1832.31C1506.92 1835.45 1508.74 1838.74 1511.81 1839.65L1550.22 1851.14C1559.9 1854.02 1569.94 1855.14 1579.91 1854.45C1581.17 1867.98 1585.24 1881.14 1591.82 1893.04L1611.38 1928.3C1612.97 1931.17 1616.48 1932.22 1619.22 1930.65L1652.88 1911.3C1664.23 1904.77 1674.03 1895.75 1681.6 1884.86C1689.81 1890.98 1698.95 1895.6 1708.62 1898.5L1747.03 1909.99C1750.1 1910.91 1753.24 1909.1 1754.05 1905.96L1764.23 1866.54C1766.78 1856.61 1767.62 1846.25 1766.71 1835.94C1779.78 1834.96 1792.42 1831.08 1803.78 1824.57L1837.44 1805.22C1840.18 1803.64 1841.11 1800.04 1839.52 1797.17L1819.97 1761.91C1813.36 1750.02 1804.39 1739.67 1793.66 1731.58C1799.39 1723.25 1803.64 1713.91 1806.22 1703.99L1816.4 1664.57C1817.21 1661.43 1815.38 1658.14 1812.32 1657.23ZM1651.55 1619.6C1658.22 1609.85 1666.91 1601.78 1677.02 1595.96L1705.72 1579.47L1722.39 1609.53C1728.26 1620.13 1731.84 1631.87 1732.88 1643.93C1724.36 1645.7 1716.19 1648.81 1708.64 1653.15L1706.66 1654.29C1696.23 1660.28 1687.2 1668.51 1680.15 1678.43C1678.87 1666.02 1675.08 1653.96 1669.02 1643.04L1667.87 1640.96C1663.49 1633.05 1657.99 1625.85 1651.55 1619.6ZM1712.42 1664.68L1714.4 1663.54C1720.27 1660.19 1726.57 1657.68 1733.13 1656.1C1732.81 1661.71 1731.94 1667.25 1730.54 1672.66L1730.1 1674.36C1724.69 1695.52 1711.26 1713.35 1692.81 1723.89L1671.16 1736.36L1677.79 1710.68C1682.81 1691.03 1695.28 1674.47 1712.42 1664.68ZM1657.95 1646.66L1659.1 1648.74C1669.09 1666.63 1671.83 1687.74 1666.7 1707.35L1660.07 1733.04L1647.47 1710.32C1636.72 1691.05 1633.77 1668.32 1639.28 1647.2L1639.73 1645.49C1641.12 1640.09 1643.03 1634.85 1645.45 1629.87C1650.32 1634.87 1654.53 1640.52 1657.95 1646.66ZM1571 1633.65L1579.71 1599.92L1612.58 1609.75C1621.17 1612.33 1629.27 1616.48 1636.52 1621.98C1633.14 1628.36 1630.5 1635.13 1628.65 1642.17L1628.21 1643.88C1624.82 1657.03 1624.25 1670.85 1626.55 1684.4C1616.36 1675.39 1604.44 1668.75 1591.63 1664.91L1589.97 1664.41C1583.09 1662.39 1576.03 1661.19 1568.92 1660.84C1568.03 1651.68 1568.73 1642.47 1571 1633.65ZM1578.6 1692.27C1575.21 1686.13 1572.63 1679.56 1570.93 1672.74C1576.37 1673.2 1581.76 1674.24 1587.03 1675.82L1588.69 1676.31C1609.3 1682.42 1626.89 1696.73 1637.55 1716.06L1650.15 1738.78L1625.12 1731.3C1605.97 1725.62 1589.63 1712.31 1579.75 1694.35L1578.6 1692.27ZM1622.18 1742.64L1647.21 1750.12L1625.52 1762.59C1607.13 1773.23 1585.19 1775.72 1564.61 1769.51L1562.95 1769.01C1557.68 1767.44 1552.57 1765.33 1547.68 1762.71C1552.41 1757.8 1557.77 1753.59 1563.63 1750.2L1565.62 1749.06C1582.7 1739.18 1603.07 1736.87 1622.18 1742.64ZM1497.41 1699.2L1526.11 1682.7C1536.23 1676.89 1547.51 1673.48 1559.16 1672.7C1561.09 1681.54 1564.3 1690.06 1568.68 1697.97L1569.83 1700.05C1575.88 1710.97 1584.07 1720.51 1593.85 1728.04C1581.86 1729.05 1570.28 1732.68 1559.85 1738.67L1557.87 1739.81C1550.32 1744.15 1543.49 1749.66 1537.59 1756.16C1527.99 1749.03 1519.97 1739.85 1514.09 1729.26L1497.41 1699.2ZM1553.16 1839.76L1520.29 1829.93L1529 1796.2C1531.3 1787.38 1535.11 1779.1 1540.26 1771.75C1546.52 1775.4 1553.14 1778.29 1560 1780.38L1561.67 1780.88C1574.48 1784.7 1587.88 1785.62 1600.93 1783.57C1592.47 1793.89 1586.32 1806.05 1582.92 1819.19L1582.48 1820.9C1580.69 1827.96 1579.7 1835.23 1579.53 1842.57C1570.69 1843.26 1561.75 1842.31 1553.16 1839.76ZM1672.58 1877.27C1665.92 1887.02 1657.22 1895.09 1647.12 1900.91L1618.42 1917.41L1601.74 1887.34C1595.87 1876.74 1592.29 1865 1591.26 1852.94C1599.77 1851.17 1607.94 1848.06 1615.49 1843.72L1617.47 1842.58C1627.9 1836.59 1636.93 1828.37 1643.98 1818.44C1645.26 1830.85 1649.05 1842.92 1655.11 1853.84L1656.26 1855.92C1660.64 1863.82 1666.15 1871.02 1672.58 1877.27ZM1611.71 1832.19L1609.73 1833.33C1603.86 1836.69 1597.56 1839.19 1591 1840.78C1591.32 1835.17 1592.19 1829.62 1593.59 1824.22L1594.03 1822.51C1599.44 1801.36 1612.87 1783.53 1631.32 1772.99L1652.97 1760.51L1646.34 1786.2C1641.32 1805.84 1628.85 1822.41 1611.71 1832.19ZM1666.18 1850.21L1665.03 1848.14C1655.04 1830.24 1652.31 1809.13 1657.43 1789.52L1664.06 1763.83L1676.66 1786.55C1687.41 1805.82 1690.36 1828.55 1684.85 1849.67L1684.41 1851.38C1683.02 1856.78 1681.1 1862.02 1678.68 1867C1673.81 1862 1669.61 1856.35 1666.18 1850.21ZM1753.14 1863.23L1744.42 1896.96L1711.55 1887.13C1702.97 1884.55 1694.87 1880.41 1687.63 1874.92C1691 1868.53 1693.64 1861.75 1695.48 1854.7L1695.92 1852.99C1699.32 1839.84 1699.88 1826.02 1697.58 1812.48C1707.77 1821.48 1719.69 1828.13 1732.5 1831.96L1734.16 1832.46C1741.04 1834.49 1748.11 1835.7 1755.23 1836.06C1756.11 1845.21 1755.4 1854.41 1753.14 1863.23ZM1745.53 1804.6C1748.93 1810.75 1751.5 1817.32 1753.2 1824.14C1747.76 1823.67 1742.37 1822.64 1737.1 1821.06L1735.44 1820.56C1714.83 1814.45 1697.24 1800.14 1686.58 1780.81L1674 1758.12L1699.03 1765.6C1718.16 1771.28 1734.5 1784.57 1744.38 1802.52L1745.53 1804.6ZM1701.95 1754.23L1676.92 1746.75L1698.61 1734.28C1717 1723.64 1738.94 1721.15 1759.52 1727.36L1761.18 1727.86C1766.45 1729.43 1771.57 1731.54 1776.45 1734.16C1771.72 1739.07 1766.36 1743.28 1760.5 1746.67L1758.52 1747.81C1741.43 1757.69 1721.07 1760.01 1701.95 1754.23ZM1826.72 1797.68L1798.02 1814.17C1787.9 1819.98 1776.62 1823.39 1764.97 1824.17C1763.05 1815.33 1759.84 1806.81 1755.45 1798.9L1754.3 1796.82C1748.25 1785.9 1740.06 1776.36 1730.28 1768.84C1742.27 1767.82 1753.86 1764.2 1764.28 1758.2L1766.26 1757.06C1773.81 1752.72 1780.65 1747.21 1786.54 1740.71C1796.14 1747.84 1804.17 1757.02 1810.05 1767.61L1826.72 1797.68ZM1795.13 1700.68C1792.84 1709.48 1789.04 1717.76 1783.89 1725.11C1777.63 1721.46 1771 1718.57 1764.13 1716.49L1762.47 1716C1749.65 1712.17 1736.25 1711.25 1723.2 1713.3C1731.66 1702.98 1737.81 1690.83 1741.21 1677.68L1741.65 1675.98C1743.45 1668.91 1744.45 1661.64 1744.62 1654.29C1753.46 1653.61 1762.38 1654.56 1770.97 1657.12L1803.84 1666.95L1795.13 1700.68Z" fill="#F59505" fill-opacity="0.5"/>
</svg>
