<svg width="24" height="24" viewBox="0 0 24 24" fill="none" xmlns="http://www.w3.org/2000/svg">
<path fill-rule="evenodd" clip-rule="evenodd" d="M3 3C2.44772 3 2 3.44772 2 4C2 4.55228 2.44772 5 3 5H21C21.5523 5 22 4.55228 22 4C22 3.44772 21.5523 3 21 3H3ZM2 11.9999C2 11.4476 2.44772 10.9999 3 10.9999H21C21.5523 10.9999 22 11.4476 22 11.9999C22 12.5522 21.5523 12.9999 21 12.9999H3C2.44772 12.9999 2 12.5522 2 11.9999ZM2 19.9998C2 19.4476 2.44772 18.9998 3 18.9998H21C21.5523 18.9998 22 19.4476 22 19.9998C22 20.5521 21.5523 20.9998 21 20.9998H3C2.44772 20.9998 2 20.5521 2 19.9998Z" fill="#EAA428"/>
</svg>
