<svg width="439" height="450" viewBox="0 0 439 450" fill="none" xmlns="http://www.w3.org/2000/svg">
<path d="M403.865 113.246L356.7 99.1413C344.823 95.6093 332.491 94.235 320.259 95.0802C318.709 78.4667 313.721 62.3043 305.634 47.6951L281.629 4.40583C279.676 0.883436 275.366 -0.405458 272.003 1.52721L230.679 25.2794C216.743 33.3015 204.714 44.3744 195.415 57.7446C185.344 50.2293 174.121 44.5593 162.254 40.9904L115.088 26.8852C111.33 25.7619 107.476 27.9771 106.479 31.8337L93.9751 80.2355C90.8458 92.4241 89.8165 105.136 90.9334 117.799C74.8896 118.998 59.3683 123.759 45.4247 131.76L4.10075 155.512C0.738273 157.445 -0.404306 161.867 1.54893 165.39L25.5537 208.679C33.6606 223.279 44.6741 235.98 57.8459 245.918C50.816 256.144 45.6008 267.604 42.4354 279.782L29.9314 328.184C28.9357 332.041 31.1745 336.078 34.9326 337.203L82.0978 351.308C93.9746 354.84 106.307 356.214 118.539 355.369C120.092 371.98 125.08 388.138 133.167 402.744L157.171 446.034C159.125 449.556 163.434 450.845 166.797 448.912L208.121 425.16C222.058 417.138 234.086 406.065 243.385 392.695C253.457 400.21 264.679 405.88 276.546 409.449L323.712 423.554C327.47 424.678 331.324 422.462 332.321 418.606L344.825 370.204C347.954 358.015 348.984 345.303 347.867 332.641C363.911 331.442 379.432 326.68 393.375 318.68L434.699 294.928C438.062 292.995 439.205 288.572 437.251 285.05L413.247 241.76C405.14 227.16 394.126 214.459 380.954 204.521C387.984 194.295 393.199 182.835 396.365 170.657L408.869 122.255C409.859 118.401 407.62 114.37 403.865 113.246ZM206.489 67.0579C214.675 55.0859 225.347 45.1791 237.753 38.0359L272.988 17.7834L293.456 54.6944C300.663 67.7028 305.057 82.1173 306.329 96.9213C295.878 99.1015 285.847 102.919 276.58 108.242L274.144 109.642C261.343 116.995 250.253 127.095 241.601 139.282C240.035 124.039 235.38 109.231 227.941 95.8249L226.527 93.2736C221.147 83.5689 214.391 74.7294 206.489 67.0579ZM281.218 122.399L283.653 120.999C290.854 116.88 298.587 113.806 306.639 111.858C306.247 118.745 305.182 125.557 303.461 132.19L302.92 134.284C296.28 160.252 279.797 182.143 257.143 195.081L230.561 210.393L238.707 178.863C244.869 154.744 260.176 134.412 281.218 122.399ZM214.349 100.273L215.764 102.824C228.023 124.796 231.382 150.709 225.093 174.786L216.951 206.323L201.484 178.431C188.284 154.77 184.665 126.867 191.433 100.937L191.974 98.8433C193.68 92.206 196.035 85.7803 199.002 79.6631C204.983 85.8051 210.145 92.7387 214.349 100.273ZM107.598 84.2988L118.295 42.8906L158.645 54.9578C169.189 58.1309 179.143 63.218 188.035 69.9773C183.891 77.8043 180.65 86.1219 178.375 94.7659L177.834 96.86C173.67 113.004 172.978 129.977 175.805 146.601C163.286 135.55 148.659 127.387 132.934 122.676L130.893 122.066C122.446 119.582 113.772 118.109 105.046 117.678C103.956 106.435 104.82 95.13 107.598 84.2988ZM116.93 156.267C112.767 148.725 109.601 140.658 107.519 132.288C114.196 132.861 120.817 134.128 127.281 136.069L129.321 136.68C154.624 144.176 176.221 161.746 189.3 185.476L204.767 213.368L174.042 204.18C150.536 197.21 130.479 180.874 118.345 158.819L116.93 156.267ZM170.434 218.105L201.165 227.29L174.539 242.594C151.955 255.658 125.029 258.717 99.76 251.089L97.7194 250.479C91.2519 248.554 84.9733 245.962 78.9786 242.746C84.7793 236.716 91.366 231.55 98.557 227.388L100.992 225.988C121.965 213.855 146.97 211.016 170.434 218.105ZM17.2632 164.769L52.4985 144.516C64.9164 137.386 78.7645 133.197 93.0657 132.243C95.4318 143.098 99.3723 153.558 104.753 163.267L106.167 165.818C113.599 179.228 123.648 190.936 135.658 200.176C120.939 201.422 106.716 205.871 93.9187 213.232L91.4832 214.632C82.2196 219.955 73.8262 226.722 66.5921 234.7C54.8015 225.948 44.9497 214.676 37.7311 201.68L17.2632 164.769ZM85.699 337.328L45.3487 325.261L56.0459 283.853C58.8604 273.033 63.5423 262.87 69.8692 253.845C77.548 258.319 85.6798 261.872 94.104 264.434L96.1447 265.044C111.876 269.743 128.325 270.872 144.351 268.356C133.958 281.024 126.412 295.943 122.235 312.08L121.694 314.174C119.495 322.844 118.281 331.772 118.077 340.781C107.219 341.633 96.253 340.464 85.699 337.328ZM232.311 383.382C224.125 395.354 213.453 405.26 201.047 412.404L165.812 432.656L145.344 395.745C138.138 382.737 133.744 368.322 132.471 353.518C142.922 351.338 152.953 347.521 162.221 342.197L164.656 340.797C177.458 333.445 188.547 323.345 197.199 311.158C198.766 326.401 203.42 341.209 210.859 354.615L212.274 357.166C217.654 366.87 224.41 375.71 232.311 383.382ZM157.582 328.041L155.147 329.441C147.946 333.559 140.214 336.634 132.161 338.581C132.553 331.695 133.618 324.882 135.34 318.25L135.881 316.156C142.52 290.188 159.003 268.296 181.658 255.358L208.239 240.046L200.093 271.576C193.932 295.695 178.624 316.027 157.582 328.041ZM224.451 350.167L223.036 347.615C210.777 325.644 207.418 299.731 213.708 275.653L221.849 244.117L237.316 272.009C250.516 295.669 254.135 323.573 247.368 349.502L246.827 351.596C245.12 358.233 242.765 364.66 239.798 370.776C233.819 364.635 228.656 357.701 224.451 350.167ZM331.202 366.141L320.505 407.549L280.155 395.482C269.619 392.316 259.672 387.241 250.783 380.494C254.923 372.657 258.158 364.328 260.425 355.674L260.966 353.579C265.13 337.436 265.823 320.462 262.996 303.838C275.514 314.889 290.141 323.052 305.867 327.763L307.907 328.373C316.358 330.868 325.036 332.349 333.768 332.787C334.852 344.023 333.983 355.319 331.202 366.141ZM321.87 294.172C326.033 301.715 329.199 309.782 331.281 318.152C324.604 317.579 317.983 316.312 311.52 314.37L309.479 313.76C284.176 306.264 262.58 288.693 249.5 264.964L234.051 237.103L264.776 246.292C288.27 253.258 308.32 269.58 320.455 291.621L321.87 294.172ZM268.366 232.335L237.635 223.15L264.261 207.846C286.846 194.782 313.772 191.722 339.04 199.35L341.081 199.961C347.548 201.886 353.827 204.477 359.822 207.693C354.021 213.723 347.435 218.89 340.243 223.051L337.808 224.451C316.836 236.584 291.831 239.423 268.366 232.335ZM421.537 285.671L386.302 305.923C373.884 313.053 360.036 317.243 345.735 318.196C343.368 307.341 339.428 296.881 334.048 287.173L332.633 284.622C325.202 271.211 315.152 259.504 303.143 250.264C317.862 249.017 332.085 244.568 344.882 237.208L347.317 235.808C356.581 230.484 364.974 223.718 372.208 215.739C383.999 224.491 393.851 235.764 401.069 248.76L421.537 285.671ZM382.754 166.587C379.946 177.398 375.276 187.555 368.961 196.577C361.273 192.107 353.13 188.559 344.696 186.006L342.656 185.396C326.925 180.698 310.475 179.567 294.449 182.083C304.842 169.415 312.388 154.496 316.565 138.359L317.106 136.265C319.314 127.592 320.536 118.659 320.748 109.645C331.597 108.801 342.553 109.977 353.095 113.115L393.452 125.179L382.754 166.587Z" fill="#F59505" fill-opacity="0.5"/>
</svg>
