<svg width="648" height="665" viewBox="0 0 648 665" fill="none" xmlns="http://www.w3.org/2000/svg">
<path d="M596.619 166.634L526.904 145.749C509.35 140.519 491.123 138.479 473.046 139.722C470.744 115.155 463.363 91.2543 451.403 69.6479L415.901 5.62444C413.012 0.414933 406.642 -1.49348 401.673 1.36222L340.614 36.4578C320.021 48.3111 302.251 64.6765 288.516 84.4404C273.626 73.322 257.037 64.9314 239.496 59.6471L169.782 38.7621C164.227 37.0989 158.532 40.3721 157.061 46.0739L138.609 117.635C133.992 135.655 132.478 154.451 134.136 173.175C110.425 174.939 87.4889 181.969 66.8863 193.791L5.82699 228.886C0.858666 231.742 -0.827377 238.281 2.0614 243.491L37.5636 307.514C49.5535 329.107 65.8378 347.893 85.3104 362.596C74.9269 377.712 67.2259 394.655 62.5548 412.659L44.1034 484.22C42.6341 489.922 45.9452 495.894 51.4999 497.559L121.214 518.444C138.769 523.673 156.996 525.713 175.073 524.471C177.378 549.033 184.76 572.928 196.719 594.53L232.222 658.553C235.11 663.763 241.481 665.671 246.449 662.815L307.508 627.72C328.101 615.867 345.871 599.501 359.606 579.737C374.496 590.856 391.085 599.246 408.626 604.531L478.341 625.416C483.896 627.079 489.59 623.806 491.062 618.104L509.513 546.543C514.131 528.522 515.645 509.727 513.986 491.003C537.698 489.24 560.633 482.209 581.236 470.387L642.295 435.291C647.264 432.436 648.95 425.897 646.061 420.687L610.559 356.664C598.569 335.071 582.285 316.284 562.812 301.582C573.195 286.465 580.896 269.523 585.568 251.518L604.019 179.958C605.48 174.259 602.168 168.297 596.619 166.634ZM304.888 98.2181C316.978 80.5209 332.745 65.8789 351.076 55.3243L403.139 25.3997L433.41 79.9899C444.068 99.2288 450.57 120.545 452.46 142.436C437.015 145.653 422.192 151.291 408.499 159.157L404.9 161.226C385.985 172.09 369.602 187.017 356.822 205.032C354.498 182.492 347.61 160.593 336.609 140.767L334.516 136.994C326.56 122.641 316.57 109.566 304.888 98.2181ZM415.362 180.092L418.961 178.024C429.6 171.938 441.027 167.396 452.926 164.522C452.352 174.705 450.781 184.777 448.241 194.583L447.442 197.679C437.645 236.072 413.297 268.431 379.824 287.548L340.548 310.173L352.568 263.556C361.66 227.897 384.272 197.842 415.362 180.092ZM316.523 147.336L318.616 151.109C336.746 183.604 341.726 221.922 332.445 257.52L320.43 304.146L297.555 262.894C278.034 227.901 272.668 186.64 282.655 148.304L283.453 145.208C285.971 135.395 289.448 125.895 293.83 116.852C302.672 125.937 310.306 136.193 316.523 147.336ZM158.745 123.651L174.53 62.4302L234.172 80.2975C249.756 84.9958 264.47 92.5237 277.616 102.524C271.496 114.094 266.71 126.391 263.354 139.171L262.556 142.267C256.41 166.136 255.397 191.232 259.585 215.815C241.078 199.467 219.455 187.388 196.212 180.413L193.195 179.509C180.709 175.83 167.89 173.648 154.993 173.004C153.375 156.38 154.646 139.665 158.745 123.651ZM172.579 230.072C166.422 218.916 161.739 206.986 158.657 194.609C168.525 195.46 178.311 197.338 187.865 200.213L190.881 201.116C228.281 212.215 260.209 238.209 279.553 273.304L302.427 314.556L257.013 300.951C222.27 290.631 192.617 266.465 174.672 233.845L172.579 230.072ZM251.69 321.539L297.113 335.138L257.771 357.751C224.401 377.055 184.608 381.562 147.259 370.268L144.243 369.364C134.683 366.513 125.402 362.678 116.541 357.919C125.11 349.006 134.842 341.371 145.467 335.222L149.066 333.154C180.054 315.225 217.008 311.043 251.69 321.539ZM25.2853 242.582L77.3481 212.657C95.6966 202.122 116.16 195.936 137.296 194.534C140.799 210.586 146.629 226.055 154.586 240.414L156.679 244.187C167.669 264.02 182.528 281.337 200.283 295.007C178.53 296.842 157.512 303.411 138.604 314.287L135.005 316.356C121.317 324.222 108.917 334.221 98.23 346.015C80.7994 333.066 66.2327 316.393 55.5566 297.172L25.2853 242.582ZM126.528 497.774L66.887 479.907L82.6724 418.686C86.8257 402.69 93.7392 387.665 103.084 374.324C114.436 380.944 126.456 386.203 138.908 389.996L141.924 390.899C165.176 397.856 189.487 399.537 213.17 395.827C197.818 414.551 186.674 436.606 180.511 460.464L179.712 463.56C176.468 476.379 174.679 489.579 174.382 502.899C158.336 504.153 142.128 502.417 126.528 497.774ZM343.234 565.96C331.144 583.657 315.377 598.299 297.047 608.853L244.984 638.778L214.712 584.188C204.054 564.949 197.552 543.632 195.662 521.742C211.108 518.525 225.93 512.887 239.623 505.021L243.222 502.952C262.137 492.088 278.52 477.16 291.301 459.146C293.624 481.685 300.512 503.584 311.514 523.411L313.606 527.184C321.563 541.536 331.554 554.611 343.234 565.96ZM232.76 484.086L229.162 486.154C218.521 492.239 207.096 496.781 195.196 499.656C195.771 489.473 197.341 479.401 199.882 469.595L200.68 466.499C210.477 428.106 234.825 395.747 268.299 376.63L307.575 354.005L295.555 400.622C286.463 436.28 263.851 466.335 232.76 484.086ZM331.599 516.842L329.507 513.069C311.376 480.574 306.396 442.256 315.678 406.658L327.692 360.032L350.567 401.283C370.089 436.277 375.454 477.538 365.467 515.873L364.669 518.97C362.151 528.782 358.675 538.284 354.292 547.326C345.452 538.241 337.818 527.985 331.599 516.842ZM489.377 540.527L473.592 601.747L413.951 583.88C398.378 579.192 383.674 571.682 370.533 561.701C376.647 550.115 381.423 537.802 384.769 525.007L385.567 521.911C391.711 498.043 392.725 472.946 388.537 448.363C407.045 464.711 428.668 476.79 451.911 483.765L454.927 484.669C467.418 488.362 480.244 490.557 493.15 491.211C494.758 507.825 493.48 524.527 489.377 540.527ZM475.543 434.106C481.7 445.262 486.384 457.191 489.466 469.569C479.597 468.717 469.811 466.84 460.258 463.965L457.241 463.061C419.842 451.962 387.914 425.969 368.57 390.873L345.721 349.669L391.135 363.274C425.86 373.589 455.502 397.735 473.451 430.333L475.543 434.106ZM396.433 342.639L351.01 329.039L390.351 306.427C423.722 287.123 463.514 282.616 500.864 293.91L503.88 294.813C513.439 297.665 522.72 301.5 531.581 306.259C523.012 315.171 513.282 322.807 502.655 328.956L499.057 331.024C468.069 348.952 431.115 353.134 396.433 342.639ZM622.837 421.596L570.774 451.521C552.426 462.056 531.962 468.242 510.827 469.644C507.323 453.591 501.494 438.122 493.536 423.764L491.444 419.991C480.453 400.158 465.595 382.84 447.84 369.17C469.592 367.336 490.61 360.766 509.519 349.89L513.117 347.822C526.805 339.956 539.206 329.956 549.892 318.163C567.323 331.111 581.89 347.785 592.566 367.006L622.837 421.596ZM565.45 245.492C561.306 261.476 554.41 276.491 545.083 289.828C533.717 283.213 521.68 277.963 509.215 274.182L506.199 273.278C482.947 266.322 458.635 264.641 434.952 268.351C450.305 249.626 461.448 227.572 467.612 203.713L468.41 200.617C471.668 187.794 473.469 174.587 473.777 161.258C489.811 160.017 506.003 161.762 521.585 166.408L581.235 184.271L565.45 245.492Z" fill="white" fill-opacity="0.15"/>
</svg>
