<svg width="28" height="25" viewBox="0 0 28 25" fill="none" xmlns="http://www.w3.org/2000/svg">
<path d="M27.3587 0.441894C27.1047 0.225155 26.7954 0.0812164 26.4644 0.0256734C26.1334 -0.0298697 25.7934 0.00510037 25.4811 0.126795L1.16987 9.5601C0.799076 9.70397 0.485424 9.96257 0.275841 10.2972C0.0662591 10.6318 -0.0279839 11.0245 0.00721425 11.4164C0.0424124 11.8083 0.205159 12.1785 0.471102 12.4714C0.737045 12.7644 1.09188 12.9644 1.48252 13.0416L7.8695 14.3032V22.1347C7.86918 22.4951 7.97715 22.8475 8.17974 23.1473C8.38233 23.447 8.67043 23.6806 9.00755 23.8185C9.34467 23.9565 9.71564 23.9924 10.0735 23.922C10.4313 23.8515 10.7599 23.6777 11.0177 23.4226L14.6099 19.8747L19.9824 24.5444C20.3165 24.8374 20.7477 24.9995 21.1946 25C21.3888 24.9998 21.5818 24.9696 21.7666 24.9104C22.0714 24.8149 22.3455 24.6422 22.5616 24.4094C22.7777 24.1766 22.9283 23.8919 22.9982 23.5837L27.9529 2.22907C28.0284 1.90598 28.0129 1.56866 27.9082 1.25364C27.8034 0.938613 27.6134 0.657898 27.3587 0.441894ZM1.58177 11.2784C1.57324 11.222 1.58524 11.1644 1.61565 11.1158C1.64606 11.0673 1.6929 11.031 1.74784 11.0134L22.0902 3.12005L8.47668 12.8309L1.79248 11.5105C1.73523 11.5027 1.68264 11.4751 1.64406 11.4326C1.60548 11.3901 1.58341 11.3355 1.58177 11.2784ZM9.89996 22.3187C9.86312 22.3551 9.81618 22.3799 9.76508 22.3899C9.71397 22.4 9.661 22.3948 9.61286 22.3751C9.56472 22.3555 9.52357 22.3221 9.49462 22.2793C9.46568 22.2365 9.45023 22.1862 9.45023 22.1347V15.3901L13.4208 18.8412L9.89996 22.3187ZM21.4574 23.2349C21.4472 23.2789 21.4257 23.3194 21.3948 23.3527C21.364 23.3859 21.3249 23.4107 21.2815 23.4245C21.2381 23.4383 21.1917 23.4408 21.147 23.4317C21.1023 23.4225 21.0608 23.402 21.0266 23.3723L9.92543 13.7235L26.3892 1.9794L21.4574 23.2349Z" fill="#EAA428"/>
</svg>
