<svg width="29" height="26" viewBox="0 0 29 26" fill="none" xmlns="http://www.w3.org/2000/svg">
<path d="M27.8587 0.888672C27.6047 0.671932 27.2954 0.527994 26.9644 0.472451C26.6334 0.416908 26.2934 0.451878 25.9811 0.573572L1.66987 10.0069C1.29908 10.1507 0.985424 10.4093 0.775841 10.744C0.566259 11.0786 0.472016 11.4712 0.507214 11.8632C0.542412 12.2551 0.705159 12.6252 0.971102 12.9182C1.23704 13.2112 1.59188 13.4112 1.98252 13.4883L8.3695 14.75V22.5815C8.36918 22.9419 8.47715 23.2943 8.67974 23.5941C8.88233 23.8938 9.17043 24.1274 9.50755 24.2653C9.84467 24.4032 10.2156 24.4392 10.5735 24.3687C10.9313 24.2982 11.2599 24.1245 11.5177 23.8694L15.1099 20.3215L20.4824 24.9911C20.8165 25.2842 21.2477 25.4463 21.6946 25.4468C21.8888 25.4466 22.0818 25.4163 22.2666 25.3572C22.5714 25.2617 22.8455 25.0889 23.0616 24.8561C23.2777 24.6234 23.4283 24.3387 23.4982 24.0305L28.4529 2.67584C28.5284 2.35276 28.5129 2.01543 28.4082 1.70041C28.3034 1.38539 28.1134 1.10467 27.8587 0.888672ZM2.08177 11.7252C2.07324 11.6687 2.08524 11.6111 2.11565 11.5626C2.14606 11.5141 2.1929 11.4778 2.24784 11.4601L22.5902 3.56683L8.97668 13.2777L2.29248 11.9573C2.23523 11.9495 2.18264 11.9219 2.14406 11.8794C2.10548 11.8369 2.08341 11.7822 2.08177 11.7252ZM10.4 22.7655C10.3631 22.8019 10.3162 22.8267 10.2651 22.8367C10.214 22.8468 10.161 22.8416 10.1129 22.8219C10.0647 22.8022 10.0236 22.7689 9.99463 22.7261C9.96568 22.6833 9.95023 22.633 9.95023 22.5815V15.8368L13.9208 19.288L10.4 22.7655ZM21.9574 23.6817C21.9472 23.7256 21.9257 23.7662 21.8948 23.7994C21.864 23.8327 21.8249 23.8574 21.7815 23.8713C21.7381 23.8851 21.6917 23.8876 21.647 23.8784C21.6023 23.8693 21.5608 23.8488 21.5266 23.8191L10.4254 14.1702L26.8892 2.42618L21.9574 23.6817Z" fill="white"/>
</svg>
