<svg width="28" height="18" viewBox="0 0 28 18" fill="none" xmlns="http://www.w3.org/2000/svg">
<path d="M2.76257 0C1.40388 0 0.369289 1.36176 0.743991 2.70064C1.7196 6.19067 3.16584 9.60822 5.32457 12.2953C7.4833 14.9823 10.4029 16.93 14.1365 17.3164C15.3792 17.445 16.451 16.4124 16.451 15.16V12.6597C16.451 12.5037 16.5556 12.3928 16.6748 12.3894C16.6969 12.3889 16.7145 12.3882 16.7257 12.3882C17.1545 12.3882 18.0355 12.9357 18.8094 13.7868C19.5833 14.6379 20.2678 15.6915 20.5971 16.275V16.2762C20.9697 16.9354 21.6641 17.3333 22.4026 17.3333H25.3565C26.8276 17.3344 27.812 15.6406 27.0921 14.3286C25.9617 12.2679 23.7067 10.2298 22.579 9.21331C24.6451 6.90065 26.015 4.38033 26.6221 2.70909C27.0802 1.4464 26.1356 0.0253411 24.8036 0.0253411H22.695C21.7784 0.0253411 20.9239 0.480528 20.5746 1.20913C18.9336 4.63669 17.4708 5.89558 16.4404 6.80228V2.15158C16.4404 0.991324 15.4958 0.0347488 14.3614 0.0325815L10.6688 0.0265479C9.49288 0.025065 8.76374 1.50535 9.46828 2.46533L10.181 3.43795L10.1822 3.44036C10.3043 3.60501 10.3692 3.8023 10.3692 4.00511V4.00631L10.3834 7.88471C8.91474 6.30593 7.31909 2.96164 6.83761 1.46979V1.46858C6.55642 0.59712 5.74745 0.00870638 4.85455 0.0060336H4.85337L2.76375 0H2.76257ZM2.76257 1.85352L4.84982 1.85956C4.97811 1.85987 5.07247 1.93043 5.11028 2.0478C5.70813 3.90086 7.27893 7.43153 9.27056 9.4088C9.78775 9.92237 10.5468 10.0265 11.1352 9.78288C11.7236 9.53929 12.2031 8.90802 12.2031 8.16709V8.16588L12.1877 4.00511C12.1877 3.39914 11.9931 2.80983 11.636 2.32656L11.6348 2.32414L11.3093 1.88128L14.3579 1.8861C14.517 1.88642 14.6219 1.99213 14.6219 2.15158V6.84935C14.6219 8.35363 16.4806 9.21794 17.5982 8.23466H17.5994C18.6239 7.33269 20.4367 5.72288 22.2084 2.02246C22.2495 1.93676 22.2137 1.87886 22.695 1.87886H24.8036C24.9263 1.87886 24.9623 1.93845 24.916 2.06591C24.4003 3.48585 23.0844 5.96203 21.1334 8.10434C20.5321 8.76473 20.5566 9.85588 21.2364 10.4695C22.3021 11.4303 24.6281 13.6348 25.5044 15.2324C25.5846 15.3786 25.5243 15.4799 25.3576 15.4798H22.4026C22.3009 15.4798 22.2173 15.4292 22.1729 15.3507C21.7791 14.6529 21.0569 13.5313 20.1437 12.527C19.2304 11.5227 18.1433 10.5347 16.7257 10.5347C16.6855 10.5347 16.6526 10.5352 16.6274 10.5359H16.6251H16.6239C15.4956 10.5683 14.6325 11.5442 14.6325 12.6597V15.16C14.6325 15.3522 14.4872 15.4899 14.32 15.4726C11.0929 15.1386 8.66062 13.5229 6.73106 11.1211C4.80151 8.71934 3.42342 5.52231 2.49264 2.19261C2.4406 2.00667 2.5525 1.85352 2.76257 1.85352Z" fill="#EAA428"/>
</svg>
