<svg width="27" height="18" viewBox="0 0 27 18" fill="none" xmlns="http://www.w3.org/2000/svg">
<path d="M2.26257 0.446777C0.90388 0.446777 -0.130711 1.80853 0.243991 3.14742C1.2196 6.63744 2.66584 10.055 4.82457 12.7421C6.9833 15.4291 9.90291 17.3768 13.6365 17.7632C14.8792 17.8917 15.951 16.8592 15.951 15.6068V13.1065C15.951 12.9505 16.0556 12.8396 16.1748 12.8362C16.1969 12.8356 16.2145 12.835 16.2257 12.835C16.6545 12.835 17.5355 13.3825 18.3094 14.2336C19.0833 15.0846 19.7678 16.1382 20.0971 16.7218V16.723C20.4697 17.3822 21.1641 17.7801 21.9026 17.7801H24.8565C26.3276 17.7812 27.312 16.0874 26.5921 14.7754C25.4617 12.7147 23.2067 10.6766 22.079 9.66009C24.1451 7.34743 25.515 4.82711 26.1221 3.15587C26.5802 1.89318 25.6356 0.472118 24.3036 0.472118H22.195C21.2784 0.472118 20.4239 0.927305 20.0746 1.65591C18.4336 5.08346 16.9708 6.34235 15.9404 7.24906V2.59836C15.9404 1.4381 14.9958 0.481526 13.8614 0.479359L10.1688 0.473325C8.99288 0.471842 8.26374 1.95212 8.96828 2.91211L9.681 3.88472L9.68218 3.88714C9.80433 4.05179 9.86924 4.24907 9.86924 4.45188V4.45309L9.88345 8.33149C8.41474 6.75271 6.81909 3.40841 6.33761 1.91656V1.91536C6.05642 1.0439 5.24745 0.455484 4.35455 0.452811H4.35337L2.26375 0.446777H2.26257ZM2.26257 2.3003L4.34982 2.30633C4.47811 2.30664 4.57247 2.3772 4.61028 2.49458C5.20813 4.34763 6.77893 7.8783 8.77057 9.85558C9.28775 10.3691 10.0468 10.4733 10.6352 10.2297C11.2236 9.98607 11.7031 9.3548 11.7031 8.61386V8.61266L11.6877 4.45188C11.6877 3.84592 11.4931 3.2566 11.136 2.77333L11.1348 2.77092L10.8093 2.32805L13.8579 2.33288C14.017 2.3332 14.1219 2.43891 14.1219 2.59836V7.29612C14.1219 8.80041 15.9806 9.66472 17.0982 8.68144H17.0994C18.1239 7.77947 19.9367 6.16966 21.7084 2.46924C21.7495 2.38353 21.7137 2.32564 22.195 2.32564H24.3036C24.4263 2.32564 24.4623 2.38523 24.416 2.51268C23.9003 3.93263 22.5844 6.40881 20.6334 8.55111C20.0321 9.21151 20.0566 10.3027 20.7364 10.9163C21.8021 11.8771 24.1281 14.0816 25.0044 15.6792C25.0846 15.8253 25.0243 15.9267 24.8576 15.9266H21.9026C21.8009 15.9266 21.7173 15.876 21.6729 15.7975C21.2791 15.0997 20.5569 13.978 19.6437 12.9737C18.7304 11.9694 17.6433 10.9814 16.2257 10.9814C16.1855 10.9814 16.1526 10.982 16.1274 10.9827H16.1251H16.1239C14.9956 11.0151 14.1325 11.991 14.1325 13.1065V15.6068C14.1325 15.799 13.9872 15.9366 13.82 15.9193C10.5929 15.5854 8.16062 13.9697 6.23106 11.5679C4.30151 9.16612 2.92342 5.96909 1.99264 2.63939C1.9406 2.45344 2.0525 2.3003 2.26257 2.3003Z" fill="white"/>
</svg>
